<?xml version="1.0" encoding="UTF-8" standalone="no"?><!DOCTYPE svg PUBLIC "-//W3C//DTD SVG 1.1//EN" "http://www.w3.org/Graphics/SVG/1.1/DTD/svg11.dtd"><svg width="100%" height="100%" viewBox="0 0 160 160" version="1.1" xmlns="http://www.w3.org/2000/svg" xmlns:xlink="http://www.w3.org/1999/xlink" xml:space="preserve" xmlns:serif="http://www.serif.com/" style="fill-rule:evenodd;clip-rule:evenodd;stroke-linejoin:round;stroke-miterlimit:2;"><path d="M160,24l0,112c0,13.246 -10.754,24 -24,24l-112,0c-13.246,0 -24,-10.754 -24,-24l0,-112c0,-13.246 10.754,-24 24,-24l112,0c13.246,0 24,10.754 24,24Z" style="fill:#ebebeb;"/><path d="M153.74,97.863l-20.847,-16.384c-1.276,-1 -1.276,-2.642 0,-3.645l20.848,-16.38c1.28,-1.002 1.815,-2.695 1.19,-3.76c-0.626,-1.062 -2.374,-1.44 -3.88,-0.84l-24.79,9.874c-1.507,0.606 -2.927,-0.22 -3.153,-1.83l-3.728,-26.465c-0.23,-1.609 -1.44,-2.926 -2.693,-2.926c-1.247,-0 -2.456,1.317 -2.68,2.925l-3.73,26.467c-0.228,1.61 -1.646,2.434 -3.155,1.83l-24.38,-9.71c-1.512,-0.602 -3.975,-0.602 -5.483,0l-24.384,9.71c-1.508,0.604 -2.928,-0.22 -3.154,-1.83l-3.725,-26.467c-0.23,-1.608 -1.438,-2.925 -2.686,-2.925c-1.252,-0 -2.463,1.317 -2.688,2.925l-3.73,26.467c-0.226,1.61 -1.645,2.434 -3.153,1.83l-24.789,-9.872c-1.507,-0.603 -3.252,-0.223 -3.878,0.838c-0.625,1.066 -0.092,2.76 1.184,3.76l20.85,16.38c1.277,1.003 1.277,2.645 0,3.646l-20.85,16.382c-1.28,1.002 -1.81,2.796 -1.186,3.984c0.627,1.19 2.372,1.668 3.877,1.064l24.567,-9.866c1.51,-0.603 2.914,0.218 3.125,1.828l3.544,26.696c0.214,1.607 1.618,2.923 3.12,2.923c1.5,-0 2.905,-1.315 3.12,-2.923l3.55,-26.696c0.21,-1.61 1.62,-2.43 3.122,-1.828l24.164,9.698c1.506,0.606 3.97,0.606 5.477,0l24.16,-9.698c1.504,-0.603 2.91,0.218 3.125,1.828l3.55,26.696c0.212,1.607 1.617,2.923 3.115,2.923c1.502,0 2.907,-1.315 3.12,-2.923l3.55,-26.696c0.216,-1.61 1.62,-2.43 3.124,-1.828l24.57,9.866c1.5,0.604 3.25,0.125 3.876,-1.063c0.627,-1.186 0.094,-2.98 -1.185,-3.982l-0.001,-0.003Zm-53.04,-16.176l-18.36,14.135c-1.285,0.99 -3.393,0.99 -4.674,0l-18.366,-14.135c-1.284,-0.99 -1.294,-2.62 -0.02,-3.625l18.4,-14.493c1.274,-1.005 3.363,-1.005 4.638,0l18.4,14.493c1.277,1.004 1.267,2.634 -0.02,3.626l0.002,-0.001Z" style="fill-rule:nonzero;"/></svg>